<svg xmlns="http://www.w3.org/2000/svg" viewBox="0 0 800 340">
  <style>
    .st0{fill:#FFFFFF;}
    .st1{fill:#7B9ED7;}
  </style>
  <g>
    <path class="st0" d="M175.8,20.3c-11.2,23-25.2,41.6-43.7,57.6c-12.9,11.1-27.3,19.3-43.5,24.7c-31.6,10.4-62.8,9.7-93.5-3
      c4.2,6.2,8.1,12.7,12.7,18.7C51.6,177.6,127.3,148.7,175.8,20.3z"/>
    <path class="st1" d="M175.8,20.3c-48.5,128.4-124.2,157.3-168,97.9c16.6,21.7,39.2,38.9,47.9,63.6c26.1-18.2,52.5-6.3,78.8-0.7
      c26.3,5.7,52.7,10.8,77.5-7.1C204.3,118.6,189.8,65.3,175.8,20.3z"/>
    <path class="st0" d="M175.8,20.3c14,45.1,28.5,98.3,36.2,154c15.1-10.8,30.6-17.9,47.9-23c28.7-8.5,57.8-9.2,87.5-0.2
      c-11.8-0.9-23.5-3.1-34.8-7.5C264.1,126.7,227.9,83.8,175.8,20.3z"/>
    <path class="st1" d="M175.8,20.3c52.1,63.5,88.3,106.4,136.7,123.4c13.9,4.9,28.5,7.3,43.1,8.2c35.1,1.5,65-10.7,90.1-33.9
      c-4,6-7.6,12.5-10.5,19.4C392.5,184.1,341.1,149.5,336,242.8c-25.4-33.2-64.4-53.2-124-68.4C206.3,117.7,191.8,64.5,175.8,20.3z"/>
    <path class="st0" d="M445.7,118c-25.1,23.2-55,35.4-90.1,33.9c-14.6-0.8-29.2-3.2-43.1-8.2c-48.5-17-84.7-59.9-136.7-123.4
      c0,0,0.1,0.1,0.1,0.1C222.3,134,339.8,242.2,445.7,118z"/>
    <path class="st1" d="M445.7,118c-106,124.2-223.4,16-269.9-97.6c0,0,0,0,0,0C124.5,139.2,231.3,270.8,339,339.7
      c23.5-21.6,31.7-66.3-3-96.9C341.1,149.5,392.5,184.1,445.7,118z"/>
    <path class="st0" d="M336,242.8c34.7,30.6,26.5,75.3,3,96.9C446.9,275.8,412.2,184.1,336,242.8z"/>
    <path class="st0" d="M609.1,210.7h9.5l1.5-1.3v14.9l-1.5-1.1h-11.2l-2.3,1.7v-33.1l2.5,1.7h11.8l1.5-1.1v14.7l-1.3-1.3h-10.6v3.9
      H609.1z M604.9,196.7v8.1h6.9l0.8-0.6v-6.7l-0.8-0.8H604.9z"/>
    <path class="st0" d="M629.8,201.6h9.3l1.5-1.1v25.1l-3.8-2.6h-11.2l-3.6,2.6v-25.1l1.5,1.1h6.3H629.8z M629.8,205.4h-6.7v16.3h14
      v-16.3H629.8z"/>
    <path class="st0" d="M582.3,213.3c-0.9-14.5,19.4-13.8,18.9,0.4C600.5,229.1,581.2,228.6,582.3,213.3z M597.6,213.3
      c0-7.3-11.1-6.9-11.2,0.4C586.3,221.3,597.6,220.8,597.6,213.3z"/>
    <path class="st0" d="M681.5,213.5c0.4-15.2,18.3-14.2,19.1-0.2C700.1,229.1,681.3,227.6,681.5,213.5z M696.8,213.5
      c-0.2-7.3-11.3-7.3-11.5,0.2C685.5,220.8,696.6,221,696.8,213.5z"/>
    <path class="st0" d="M652.8,208h3.8l-0.4,5.4h-3.8c-0.6,9.5-17.8,9.2-17.6-0.2C635.2,198.9,653.4,199.3,652.8,208z M649,208
      c0-4.1-9.7-4.5-9.9,0C639.1,212.5,649,212.5,649,208z"/>
    <path class="st0" d="M662.3,196.5v3.4l1.7-1.1h5.8v26.6l-3.8-2.6h-3.7v2.8h17.8v-2.8h-4l-3.8,2.6v-26.6h6.1l1.5-1.1v-3.4l-3.6,2.6
      h-10.6L662.3,196.5z"/>
    <path class="st0" d="M717.9,201.6h9.3l1.3-1.1v25.1l-3.6-2.6h-11.2l-3.6,2.6v-25.1l1.5,1.1h6.3H717.9z M717.9,205.4h-6.7v16.3h14
      v-16.3H717.9z"/>
    <path class="st0" d="M739.7,201.6h9.1l1.5-1.1v25.1l-3.8-2.6h-11.2l-3.6,2.6v-25.1l1.5,1.1h6.5H739.7z M739.7,205.4h-6.7v16.3h14
      v-16.3H739.7z"/>
    <path class="st0" d="M768.1,201.6l1.5-1.1v25.1l-3.6-2.6h-11.4l-3.6,2.6v-25.1l1.5,1.1h9.3H768.1z M761.6,205.4h-6.7v16.3h14
      v-16.3H761.6z"/>
    <path class="st0" d="M782.4,225.6v-23.9l1.5,1.1h6.9l1.5-1.1v21.1l-0.9,0.9h6.7l1.9-1.5v-20.5l-3.8-2.6h-18.2l-3.8,2.6v21.1
      l0.8,1.3h7.3L782.4,225.6z"/>
    <path class="st0" d="M582,182.7v-26.8l1.5,1.1h7.6l1.3-1.1v21.4l-1.1,1.1h2.5l1.7-1.5v-21.4l-3.6-2.6h-16l-3.8,2.6v26.8l4-2.6h15.8
      l3.8,2.6v-8.6l-1.9,1.3h-6.7l-1.5-1.3v-8l1.5,0.9h4.2l1.9-1.3v-3.6l-1.5,1.1h-4.5l-1.5-1.1v-3.6h-6.5v17.6h-1.7v-21.2h13.7v5.2h-5.4
      v10.6h9.9v5.8H573v-25.5h19.7v25.5H582z"/>
    <path class="st0" d="M609.9,165.2c-1.3-8.2,11.2-8,10.8,0C620.5,173.7,608.1,173.5,609.9,165.2z M617.7,165.4
      c0.2-5-5-5.2-5.2-0.2C612.5,170.2,617.9,170.2,617.7,165.4z M609.3,177v-5.2l1.3,0.9h3.4v-7.6h-4v3h-4.9v-6.7l3.6,2.6h9.5l3.6-2.6
      v11.4l-3.6-2.6h-4.2v13l-4.9-3.2h-8.4v-22.9l-0.9-2.1h6.1l1.3,2.1v19.9H609.3z"/>
    <path class="st0" d="M632.2,177v-23.9l1.3,1.1h7.1l1.5-1.1v21.1l-1.1,1.1h7.3l1.7-1.5v-20.5l-3.8-2.6h-18.4l-3.8,2.6v21.1l0.9,1.3
      h7.3L632.2,177z"/>
    <path class="st0" d="M671.5,178.3l-3.8-2.6h-11.2l-3.8,2.6v-25.1l1.5,1.1h7.3l9.3,10v-11.2l-3.8-2.6h-17.2l-3.6,2.6v25.1l3.6,2.6
      h17.2l3.6-2.6L671.5,178.3z M667.3,166.9l-7.8-8.6h-3v19.7h10.8V166.9z"/>
    <path class="st0" d="M679.1,177v-23.9l1.5,1.1h7.1l1.3-1.1v21.1l-0.9,1.1h7.1l1.9-1.5v-20.5l-3.8-2.6H675l-3.8,2.6v21.1l0.8,1.3
      h7.3L679.1,177z"/>
    <path class="st0" d="M708.6,153.1h10.6l1.5-1.1v3.2l-1.5-1.1h-10.6v7.4h9.5l1.5-1.1v3.2l-1.5-1.1h-9.5v7.4h10.6l1.5-1.1v3.4
      l-1.7-1.3h-18.2l-1.7,1.3v-21.1l3.6,2.6h5.8H708.6z"/>
    <path class="st0" d="M730.3,153.1h14.1l1.5-1.1v3.2l-1.5-1.1h-14.1l-1.3,1.1v7.4h11.2l1.5-1.1v12.8l-3.8-2.6h-16.7l-1.7,1.3v-19.7
      L730.3,153.1z M729,166.7h14v-4.1h-12.5l-1.5,1.1V166.7z"/>
  </g>
</svg>